<svg width="71" height="130" viewBox="0 0 71 130" fill="none" xmlns="http://www.w3.org/2000/svg">
<path d="M31.6239 14.7392C26.4498 17.6759 21.4155 22.7101 17.5 29.003L19.3179 30.4014C22.8139 24.9476 27.149 20.6125 31.4841 17.9555C35.959 15.2986 40.4339 14.7392 43.7901 16.2775L45.8877 12.7814C41.8323 10.9635 36.798 11.6627 31.6239 14.7392Z" fill="#EB016E"/>
<path d="M31.624 24.5283C28.2678 26.4861 24.9117 29.8423 22.3945 33.8976L24.3523 35.296C26.4499 31.9399 29.1069 29.2829 31.7639 27.7446C34.4208 26.2064 37.2176 25.7869 39.3153 26.7658L41.273 23.1299C38.3364 22.151 35.12 22.5705 31.624 24.5283Z" fill="#EB016E"/>
<path d="M31.6239 34.1773C29.806 35.1562 28.1279 36.9741 26.7295 39.2116L28.6873 40.61C29.5263 39.2116 30.645 38.0928 31.7638 37.5335C32.8825 36.8343 34.0012 36.6944 34.8403 37.1139L36.798 33.4781C35.2598 32.9187 33.4418 33.1984 31.6239 34.1773Z" fill="#EB016E"/>
<path d="M68.6819 2.01367L69.9405 49.0002C69.9405 49.4197 69.6608 49.8392 69.1015 50.1189C67.9827 50.8181 66.1648 50.8181 65.0461 50.1189C64.4867 49.8392 64.207 49.4197 64.207 49.0002L65.1859 2.01367C65.1859 2.29335 65.3258 2.57303 65.7453 2.71288C66.4445 3.1324 67.5632 3.1324 68.1226 2.71288C68.5421 2.57303 68.6819 2.29335 68.6819 2.01367Z" stroke="black" stroke-width="1.5" stroke-linejoin="round"/>
<path d="M68.262 1.31464C68.9613 1.73416 68.9613 2.29353 68.262 2.71305C67.5628 3.13257 66.4441 3.13257 65.8848 2.71305C65.1856 2.29353 65.1856 1.73416 65.8848 1.31464C66.4441 0.895119 67.5628 0.895119 68.262 1.31464Z" stroke="black" stroke-width="1.5" stroke-linejoin="round"/>
<path d="M1.5 85.5L1.42875 86.4263C1.24006 88.8793 3.79952 90.6002 6 89.5V89.5L24.2162 78.4744C24.72 78.1695 25.0899 77.6853 25.2517 77.119V77.119C25.645 75.7426 24.7177 74.3397 23.2972 74.1622L22.8795 74.1099C22.3082 74.0385 21.7291 74.152 21.227 74.4336L7.21287 82.2952" stroke="black" stroke-width="1.5"/>
<path d="M5.9749 41.0137L7.23347 88.0002C7.23347 88.4197 6.95379 88.8392 6.39443 89.1189C5.2757 89.8181 3.45777 89.8181 2.33905 89.1189C1.77968 88.8392 1.5 88.4197 1.5 88.0002L2.47889 41.0137C2.47889 41.2934 2.61873 41.573 3.03825 41.7129C3.73745 42.1324 4.85618 42.1324 5.41554 41.7129C5.83507 41.573 5.9749 41.2934 5.9749 41.0137Z" stroke="black" stroke-width="1.5" stroke-linejoin="round"/>
<path d="M5.55502 40.3146C6.25422 40.7342 6.25422 41.2935 5.55502 41.713C4.85581 42.1326 3.73709 42.1326 3.17772 41.713C2.47852 41.2935 2.47852 40.7342 3.17772 40.3146C3.73709 39.8951 4.85581 39.8951 5.55502 40.3146Z" stroke="black" stroke-width="1.5" stroke-linejoin="round"/>
<path d="M18.8984 117.522C18.8984 119.48 19.5976 120.739 20.7164 121.438L31.7638 127.871C30.6451 127.311 29.9459 125.913 29.9459 124.095" stroke="black" stroke-width="1.5" stroke-linejoin="round"/>
<path d="M18.8984 117.522C18.8984 119.48 19.5976 120.739 20.7164 121.438L31.7638 127.871C30.6451 127.311 29.9459 125.913 29.9459 124.095" stroke="black" stroke-width="1.5" stroke-linejoin="round"/>
<path d="M53.5787 47.0424L42.5312 40.6097C44.2093 39.6308 45.7476 39.491 46.8663 40.1902L57.9137 46.6228C56.795 46.0635 55.2568 46.0635 53.5787 47.0424Z" stroke="black" stroke-width="1.5" stroke-linejoin="round"/>
<path d="M29.946 124.095L29.8062 67.739L18.7588 61.3063L18.7941 75.5M18.8986 117.522L18.8103 82" stroke="black" stroke-width="1.5" stroke-linejoin="round"/>
<path d="M35.8199 57.2508L24.7725 50.8181L42.5322 40.6097L53.5797 47.0424L35.8199 57.2508Z" stroke="black" stroke-width="1.5" stroke-linejoin="round"/>
<path d="M29.8062 67.739L18.7588 61.3063C18.7588 57.5306 21.4158 52.776 24.7719 50.8182L35.8194 57.2509C32.4632 59.2087 29.8062 63.9633 29.8062 67.739Z" stroke="black" stroke-width="1.5" stroke-linejoin="round"/>
<path d="M53.5796 47.0424C56.9357 45.0846 59.5927 46.6228 59.5927 50.5384L59.7326 106.894C59.7326 110.67 57.0756 115.424 53.7194 117.382L36.0995 127.451C32.7433 129.409 30.0863 127.87 30.0863 123.955L29.8066 67.7388C29.8066 63.9631 32.4636 59.2085 35.8198 57.2507L53.5796 47.0424Z" stroke="black" stroke-width="1.5" stroke-linejoin="round"/>
<path d="M56.0801 52.5302C56.0801 50.8611 54.969 50.1025 53.5801 51.0129C52.1912 51.9233 51.0801 54.0475 51.0801 55.7166C51.0801 57.3857 52.1912 58.1443 53.5801 57.2339C54.969 56.3235 56.0801 54.1993 56.0801 52.5302Z" stroke="black" stroke-width="1.5" stroke-linejoin="round"/>
<path d="M48.0801 56.5302C48.0801 54.8611 46.969 54.1025 45.5801 55.0129C44.1912 55.9233 43.0801 58.0475 43.0801 59.7166C43.0801 61.3857 44.1912 62.1443 45.5801 61.2339C46.969 60.3235 48.0801 58.1993 48.0801 56.5302Z" stroke="black" stroke-width="1.5" stroke-linejoin="round"/>
<path d="M57.0801 73.2992L33.0801 86.6234V74.8102L57.0801 61.6234V73.2992Z" stroke="black" stroke-width="1.5" stroke-linejoin="round"/>
<path d="M70 49.5V49.5C70 50.7408 69.349 51.8906 68.285 52.529L60 57.5L59.8125 51.5L64 49" stroke="black" stroke-width="1.5"/>
</svg>
